<?xml version="1.0" standalone="no"?>
<!DOCTYPE svg PUBLIC "-//W3C//DTD SVG 1.1//EN" "http://www.w3.org/Graphics/SVG/1.1/DTD/svg11.dtd" >
<svg xmlns="http://www.w3.org/2000/svg">
<metadata>Generated by IcoMoon</metadata>
<defs>
<font id="icomoon" horiz-adv-x="1024">
<font-face units-per-em="1024" ascent="960" descent="-64" />
<missing-glyph horiz-adv-x="1024" />
<glyph unicode="&#x20;" d="" horiz-adv-x="512" />
<glyph unicode="&#xe000;" d="M979.626 825.13l-90.496 90.496-377.13-377.13-377.13 377.13-90.496-90.496 377.13-377.13-377.13-377.13 90.496-90.496 377.13 377.13 377.13-377.13 90.496 90.496-377.13 377.13z" />
<glyph unicode="&#xe001;" d="M934.656 384v128h-841.302v-128z" />
<glyph unicode="&#xe002;" d="M576 832h-128v-313.77h-207.53l271.53-271.574 271.53 271.574h-207.53zM704 282.666v-128h-384v128h-128v-256h640v256z" />
<glyph unicode="&#xe003;" d="M448 384v-356.65h128v356.65h358.656v128h-358.656v356.65h-128v-356.65h-354.646v-128z" />
<glyph unicode="&#xe004;" d="M0 533.334h1024v-170.668h-1024zM0 960h1024v-170.666h-1024zM0 106.666h1024v-170.666h-1024z" />
<glyph unicode="&#xe005;" d="M256 832v-170.666h-170.666v-597.334h640v170.666h213.334l-0.002 597.334h-682.666zM640 149.334h-469.334v341.334h85.334v-256h384v-85.334zM853.334 320h-512v341.334h512v-341.334z" />
<glyph unicode="&#xe006;" d="M587.946 463.616c25.302 44.246 39.722 95.402 39.722 150.016 0 167.424-135.766 303.19-303.146 303.19-167.466 0-303.232-135.766-303.232-303.19 0-167.466 135.766-303.19 303.232-303.19 63.786 0 122.966 19.712 171.818 53.418l414.294-384.682 92.118 99.328-414.806 385.11zM324.48 436.864c-97.664 0-176.768 79.104-176.768 176.768 0 97.622 79.104 176.768 176.768 176.768 97.622 0 176.81-79.146 176.81-176.768 0-97.664-79.188-176.768-176.81-176.768z" />
<glyph unicode="&#xe007;" d="M511.616 298.282l-151.126 87.296-146.816-254.292h623.574l-153.558 265.94-171.348-98.944-0.342 0.64zM512 359.722l512 295.552v73.388h-1024v-73.388zM337.366 398.934l-337.366 194.816v-462.464h182.87zM706.816 410.582l161.28-279.296h155.904v462.42z" />
<glyph unicode="&#xe008;" d="M263.552 476.8c0.982 104.96 15.872 238.806 58.326 368.64 15.018 45.866 114.474 105.258 160.554 96.64 14.806-2.688 15.872-13.27 18.858-24.448 18.816-69.802 2.134-135.68-21.632-200.874-2.518-6.656-7.466-16.086-12.97-17.408-73.642-18.602-80.042-81.494-88.064-139.094-11.008-79.318-11.606-160 2.006-239.104 8.918-51.712 18.688-102.272 82.262-125.27 44.16-15.958 67.030-192.086 36.694-229.974-4.182-5.162-11.562-9.686-18.006-10.838-49.834-8.662-145.878 52.864-161.664 102.314-40.236 126.466-56.406 256.258-56.364 419.416zM636.97 47.104c-4.438-33.962 2.688-81.152-53.632-93.312-28.842-6.23-51.328-0.768-42.496 36.778 14.166 59.904 4.394 117.462-17.238 173.142-17.664 45.526 11.094 39.21 36.096 33.578 50.902-11.434 77.058-61.61 77.27-150.186zM631.338 854.442c-3.114-64.982-3.328-119.21-59.136-150.058-15.7-8.618-35.114-13.184-48.896-5.078-20.138 11.776-3.67 29.994 1.238 44.8 16.426 49.366 17.664 99.798 15.446 151.21-0.768 16.384-19.114 45.056 17.11 48.554 27.99 2.688 54.784-4.608 64.896-34.048 7.21-21.032 7.636-44.414 9.342-55.38z" />
<glyph unicode="&#xe009;" d="M349.44 484.054c1.706 62.762-32.64 63.36-67.754 64-37.846 0.64-67.116-9.088-64.854-63.36 2.048-49.408 32.896-50.39 63.53-50.518 33.708-0.128 70.528-4.010 69.078 49.878zM511.914 434.048c32.854-0.938 60.288 4.138 61.014 53.76 0.854 57.174-31.616 60.8-67.882 60.502s-69.974-4.48-67.242-61.398c2.814-58.454 40.788-51.67 74.11-52.864zM735.702 434.474c18.39 4.822 59.52-12.544 62.89 49.28 2.816 54.826-25.088 66.304-63.574 64.086-32.384-1.834-71.382 8.362-75.562-50.474-4.054-55.382 26.282-64.684 76.246-62.892zM349.398 312.746c-0.554 59.434-38.186 54.486-71.978 55.338-32.768 0.854-60.8-5.334-61.098-54.656-0.47-66.816 40.448-61.738 78.592-62.166 35.752-0.424 58.452 14.808 54.484 61.484zM437.206 311.594c-2.602-55.978 29.952-60.502 65.75-60.074 34.134 0.426 68.566-0.896 70.102 55.85 1.494 55.51-29.526 61.398-65.706 61.098-34.478-0.382-68.866-1.322-70.146-56.874zM735.53 368.086c-35.798-2.176-77.782 6.742-76.714-60.074 0.896-55.978 34.774-57.002 69.034-57.002 33.494 0 67.968-1.92 70.698 54.656 2.604 54.484-24.83 64.68-63.018 62.42zM349.398 129.75c-0.854 57.514-35.584 56.832-71.126 56.49-33.28-0.342-61.014-7.85-61.696-55.424-0.896-65.238 39.552-62.762 78.294-63.318 36.564-0.426 57.3 16.94 54.528 62.252zM573.056 118.102c-1.152 65.92-33.706 69.334-68.906 68.182-34.774-1.238-68.864-5.078-66.646-60.33 2.090-52.096 33.792-58.838 69.718-58.326 36.096 0.468 67.242 7.55 65.834 50.474zM798.038 124.246c4.224 55.082-26.368 63.658-63.104 62.848-32.854-0.854-70.272 4.48-75.562-49.92-4.906-49.238 19.072-70.186 58.922-69.334 35.626 0.81 77.696-8.406 79.744 56.406zM539.52 866.006c111.104-1.066 252.758-16.81 390.102-61.696 48.554-15.872 75.008-121.13 65.92-169.856-2.816-15.658-13.994-16.768-25.856-19.926-73.814-19.968-143.574-2.262-212.438 22.87-7.126 2.602-17.024 7.85-18.56 13.696-19.626 77.866-7.21 84.694-68.138 93.184-83.926 11.648-254.592 12.246-338.346-2.176-54.658-9.472-29.142-19.756-53.506-87.040-16.852-46.72-203.178-70.956-243.284-38.828-5.462 4.396-10.24 12.204-11.436 19.116-9.174 52.65 19.626 154.282 71.894 170.966 133.718 42.622 271.018 59.774 443.648 59.69z" />
<glyph unicode="&#xe00a;" d="M958.294 191.53l-211.158-211.156-724.096 724.052 211.2 211.2zM981.334-33.322l-234.198 13.696 20.864 211.626 190.294-0.47z" />
<glyph unicode="&#xe00b;" d="M918.528 810.026l-542.378-542.378-270.678 270.72-90.496-90.496 270.678-270.72 89.812-91.178 633.558 633.556z" />
<glyph unicode="&#xe00c;" d="M1023.958-64h-1023.958v1024.042z" />
<glyph unicode="&#xe00d;" d="M1024 960v-1024h-1024.042z" />
<glyph unicode="&#xe00e;" d="M0-64v1024h1024z" />
<glyph unicode="&#xe00f;" d="M0 960h1024v-1024z" />
<glyph unicode="&#xe010;" d="M511.318-64.086l1.28 2.646 1.236-2.56 509.868 1023.872-1022.252 0.128z" />
<glyph unicode="&#xe011;" d="M0.554 449.194l2.604-1.28-2.518-1.194 1023.872-509.866 0.128 1022.25z" />
<glyph unicode="&#xe012;" d="M1024.64 446.72l-2.646 1.28 2.56 1.194-1023.872 509.91-0.128-1022.25z" />
<glyph unicode="&#xe013;" d="M513.878 960.042l-1.28-2.602-1.238 2.518-509.866-1023.872 1022.25-0.128z" />
<glyph unicode="&#xe014;" d="M511.616 192l1.28 1.238 1.238-1.196 509.866 469.206-1022.25 0.086z" />
<glyph unicode="&#xe015;" d="M513.878 704.042l-1.28-1.194-1.238 1.152-509.866-469.248 1022.25-0.042z" />
<glyph unicode="&#xe016;" d="M38.656 449.152l1.28-1.28-1.238-1.194 501.676-499.244 0.042 1001.004z" horiz-adv-x="682" />
<glyph unicode="&#xe017;" d="M540.416 446.762l-1.238 1.238 1.196 1.11-501.676 499.328-0.042-1001.004z" horiz-adv-x="682" />
<glyph unicode="&#xe018;" d="M515.37 140.586l1.28 1.238 1.196-1.194 499.2 501.674-112.94 112.982-387.498-387.542-387.584 387.542-112.938-112.94z" />
<glyph unicode="&#xe019;" d="M38.614 449.11l1.236-1.28-1.194-1.196 501.674-499.242 112.982 112.938-387.542 387.542 387.542 387.584-112.938 112.938z" horiz-adv-x="682" />
<glyph unicode="&#xe01a;" d="M653.312 446.634l-1.28 1.28 1.238 1.196-501.718 499.284-112.938-112.938 387.498-387.542-387.498-387.626 112.938-112.896z" horiz-adv-x="682" />
<glyph unicode="&#xe01b;" d="M517.846 755.286l-1.28-1.28-1.196 1.194-499.242-501.674 112.938-112.982 387.542 387.542 387.542-387.542 112.98 112.938z" />
</font>
</defs>
</svg>
